<svg viewBox="0 0 200 72" xmlns="http://www.w3.org/2000/svg"><path d="M24 40 L44 34 L64 42 L84 32 L104 40 L124 34 L144 42 L164 32 L184 40" fill="none" stroke="#37B6C9" stroke-width="1.2" opacity="0.55" stroke-linecap="round"/><circle cx="64" cy="20" r="12" fill="none" stroke="#F2689E" stroke-width="1.1" opacity="0.6"/><circle cx="64" cy="20" r="7" fill="#F2689E" opacity="0.08"/><path d="M64 12 L65.4 18.6 L72 20 L65.4 21.4 L64 28 L62.6 21.4 L56 20 L62.6 18.6 Z" fill="none" stroke="#FFC94D" stroke-width="0.9" opacity="0.6"/><path d="M120 52 L124 34 L128 52" fill="none" stroke="#37B6C9" stroke-width="1" opacity="0.5"/><path d="M150 14 L153 20 L159 21 L153 22 L150 28 L147 22 L141 21 L147 20 Z" fill="none" stroke="#F2689E" stroke-width="0.9" opacity="0.5"/><circle cx="24" cy="18" r="1.6" fill="#37B6C9" opacity="0.6"/><circle cx="44" cy="50" r="1.6" fill="#F2689E" opacity="0.6"/><circle cx="84" cy="10" r="1.6" fill="#FFC94D" opacity="0.6"/><circle cx="104" cy="58" r="1.6" fill="#37B6C9" opacity="0.6"/><circle cx="164" cy="54" r="1.6" fill="#F2689E" opacity="0.6"/></svg>