<svg viewBox="26 4.2 155.6 17.6" fill="none" aria-hidden="true" xmlns="http://www.w3.org/2000/svg"><path d="M68.416 18.2447H67.0501V16.1272H68.416C69.2619 16.1272 70.1166 15.9163 70.6671 15.3304C71.2181 14.7444 71.426 13.8455 71.426 12.9471C71.426 12.0487 71.2268 11.1498 70.6671 10.5643C70.1083 9.97831 69.2619 9.76744 68.416 9.76744C67.5701 9.76744 66.7154 9.97831 66.1639 10.5643C65.6129 11.1503 65.4049 12.0487 65.4049 12.9471V21.6435H63.009V7.6582H65.4049V8.54883H65.8442C65.8918 8.49393 65.9394 8.44728 65.9875 8.40064C66.5871 7.85353 67.5049 7.6582 68.4072 7.6582C69.8212 7.6582 71.2341 8.00998 72.1607 8.98662C73.0868 9.96325 73.4143 11.4632 73.4143 12.9558C73.4143 14.4485 73.0785 15.9406 72.1607 16.925C71.2424 17.9094 69.8212 18.2457 68.416 18.2457V18.2447Z" fill="currentColor"/> <path d="M31.9551 8.03497H33.3204V10.1525H31.9551C31.1087 10.1525 30.2545 10.3633 29.7035 10.9493C29.1525 11.5353 28.945 12.4342 28.945 13.3326C28.945 14.231 29.1447 15.1294 29.7035 15.7154C30.2623 16.3014 31.1087 16.5122 31.9551 16.5122C32.8015 16.5122 33.6562 16.3014 34.2072 15.7154C34.7582 15.1294 34.9657 13.3326V4.62842H37.3611V18.6219H34.9657V17.7313H34.5264C34.4783 17.7857 34.4307 17.8329 34.3826 17.8795C33.7835 18.4261 32.8652 18.6219 31.9629 18.6219C30.5494 18.6219 29.136 18.2707 28.2099 17.294C27.2838 16.3174 26.9563 14.817 26.9563 13.3248C26.9563 11.8327 27.2916 10.34 28.2099 9.35561C29.136 8.37898 30.5494 8.03497 31.9551 8.03497Z" fill="currentColor"/></svg>